<?xml version="1.0" encoding="UTF-8"?>
<svg version="1.1" xmlns="http://www.w3.org/2000/svg" width="512" height="512">
<path d="M0 0 C3.55100923 3.10243811 6.96114795 6.33703147 10.35400391 9.61083984 C11.07072266 10.27599609 11.78744141 10.94115234 12.52587891 11.62646484 C41.0902969 38.81979078 60.44083837 84.25406905 62.55712891 123.36474609 C62.82862898 145.42412698 56.29723074 164.1594098 41.16650391 180.36083984 C27.02580838 193.76118482 10.74632558 199.4072282 -8.54052734 199.09912109 C-18.35981772 198.59610004 -27.62046218 195.33267262 -36.94677734 192.43115234 C-69.88403199 182.42127756 -103.66363709 186.1600706 -135.88037109 196.66552734 C-149.56559273 200.72470325 -165.5375858 200.22609987 -178.64599609 194.61083984 C-179.52255859 194.24861328 -180.39912109 193.88638672 -181.30224609 193.51318359 C-187.86800995 190.52413986 -193.23795963 186.34058021 -198.64599609 181.61083984 C-199.26216797 181.09005859 -199.87833984 180.56927734 -200.51318359 180.03271484 C-214.34709518 167.4100674 -221.13441976 148.38211019 -222.03149414 130.05908203 C-223.12074911 86.63207178 -199.76810193 41.83034104 -170.97021484 10.72021484 C-124.99502186 -36.91833534 -51.17903504 -43.19322299 0 0 Z " fill="#000000" transform="translate(335.64599609375,261.38916015625)"/>
<path d="M0 0 C18.85631638 13.61190338 29.46036647 34.69050881 33.1640625 57.38037109 C37.00457653 85.09570853 32.83559117 114.33204085 16 137.30078125 C6.93398685 149.00867946 -5.56246851 158.46533271 -20.5 160.8046875 C-38.09172132 161.92249479 -51.99865932 158.23172446 -65.625 146.6171875 C-83.42671691 129.90196035 -91.88834146 105.21875627 -92.68359375 81.203125 C-93.19315832 55.83700093 -87.45604497 28.78963708 -69.5 9.8046875 C-50.70461117 -9.73475287 -23.29184718 -15.00532463 0 0 Z " fill="#000000" transform="translate(361.5,60.1953125)"/>
<path d="M0 0 C19.46937416 12.48036805 29.74278953 32.35215314 34.875 54.3125 C40.60616365 81.23702922 36.30095905 110.7533275 21.875 134.3125 C19.13121893 138.26003582 16.18022983 141.82491267 12.875 145.3125 C12.18921875 146.03953125 11.5034375 146.7665625 10.796875 147.515625 C-0.05327307 158.0442872 -13.69612991 162.75233374 -28.54541016 162.67602539 C-43.6120282 162.30906403 -56.78879269 155.08109845 -67.125 144.3125 C-84.93386211 124.08087749 -91.17944304 97.35670355 -90.01855469 70.88525391 C-88.46212573 46.55977551 -80.10928909 23.70902538 -62.4375 6.5 C-44.57366177 -8.85173598 -20.47669514 -11.36187567 0 0 Z " fill="#000000" transform="translate(206.125,58.6875)"/>
<path d="M0 0 C13.23799696 10.02365904 20.79440289 23.27381602 23.6875 39.6875 C25.56083633 65.45417408 21.10358926 88.45672803 4.34375 108.71484375 C-5.66876912 119.92003059 -19.71499465 129.02408338 -35 129.8984375 C-49.37942126 130.37201635 -60.39076586 126.90716936 -71.4375 117.5625 C-82.61222703 107.02880382 -89.13147902 91.78667706 -89.5859375 76.3984375 C-90.14541437 51.93492301 -85.01478071 29.92082953 -68.09765625 11.52734375 C-50.06549324 -6.85888698 -22.7691898 -15.15670206 0 0 Z " fill="#000000" transform="translate(473.3125,187.3125)"/>
<path d="M0 0 C18.68063775 12.82429848 30.60406338 31.78475355 34.90087891 54.02294922 C38.01922608 75.1559473 34.87833191 94.99507835 22.3515625 112.5625 C16.0066293 120.29907282 5.72792893 127.85679299 -4.38671875 129.6328125 C-23.53680362 131.12840487 -38.22289477 126.79016844 -53.05078125 114.2578125 C-64.68048275 103.47234118 -71.48210685 89.88576308 -75.6875 74.8125 C-75.96895874 73.81802856 -75.96895874 73.81802856 -76.25610352 72.8034668 C-77.93880621 66.21718723 -78.01964677 59.77027617 -78 53 C-78.02416992 51.35161133 -78.02416992 51.35161133 -78.04882812 49.66992188 C-78.05855197 33.16854904 -72.66549882 17.9322868 -61.0625 5.99609375 C-43.81073044 -9.86531938 -20.17593841 -12.11683452 0 0 Z " fill="#000000" transform="translate(92.6875,187.1875)"/>
</svg>
